<svg xmlns="http://www.w3.org/2000/svg" fill="none" viewBox="0 0 264 42"><path fill="#4D4D4D" fill-rule="evenodd" d="m17.8771 41.133.577-2.886c-5.368 2.481-7.62 3.175-9.69805 3.175-5.599 0-8.888999-3.753-7.619-10.218l1.732-8.773c1.27-6.465 5.945-10.218 11.60205-10.218 2.02 0 4.156.866 8.428 3.406l.577-3.059h4.907l-5.6 28.573h-4.906Zm4.04-20.723c-2.54-1.674-5.83-3.464-7.908-3.464-3.059 0-5.42605 1.675-6.29205 6.062l-1.5 7.561c-.866 4.445.981 6.061 3.92505 6.003 2.366 0 5.888-1.616 9.293-3.347l2.482-12.815ZM38.661 41.479c-3.983 0-7.62-.808-10.795-3.752l3.348-3.636c2.425 2.366 5.195 3.117 8.717 3.117 2.828 0 6.349-1.155 6.695-4.388.231-2.423-1.27-3.29-3.867-3.867-4.098-.866-11.603-1.559-10.621-8.139.75-5.368 6.349-8.601 12.122-8.601 4.271 0 7.273.808 9.928 3.002l-3.174 3.694c-2.309-1.674-4.676-2.308-7.562-2.308-3.868 0-6.061 1.789-6.408 4.156-.288 2.251 2.598 3.232 5.08 3.637 4.676.807 10.563 1.442 9.467 8.541-.924 6.177-6.35 8.544-12.93 8.544M73.702 41.133l-6.35-13.046-5.483 5.08-1.559 7.966h-4.907L63.196.957001h4.964L63.254 26.009l14.604-13.507h6.407L71.451 24.22l8.081 16.913h-5.83" clip-rule="evenodd"/><path fill="#FF1D25" fill-rule="evenodd" d="m118.378 4.709-4.271 5.138c-1.847-1.906-4.906-2.828-7.735-2.828-3.579 0-9.178 2.308-10.332 8.196l-2.31 12.007c-1.154 5.887 3.175 8.254 6.985 8.254 2.886 0 6.408-1.27 9.063-3.233l2.136 5.542c-3.06 2.193-7.851 3.752-12.296 3.752-7.504 0-14.373-5.138-12.641-13.912L89.69 13.83C91.306 5.575 98.81.957001 106.949.957001c4.445 0 8.89 1.211999 11.429 3.751999M133.506 41.133l.461-2.483c-4.791 2.194-6.811 2.772-8.774 2.772-5.83 0-9.12-4.099-7.908-10.448l1.616-8.313c1.213-6.35 6.119-10.448 11.949-10.448 2.021 0 4.041.808 7.793 3.059l.52-2.77h6.002l-5.541 28.631h-6.118Zm3.925-20.203c-2.309-1.559-5.253-2.945-7.042-2.945-2.54 0-4.734 1.501-5.427 5.196l-1.385 7.158c-.75 3.867.982 5.194 3.406 5.137 2.078 0 5.079-1.27 8.139-2.771l2.309-11.775ZM173.049 22.661l-3.579 18.472h-6.176l3.463-17.837c.75-3.867-.981-5.194-3.348-5.137-2.078 0-5.022 1.327-8.254 3.117l-3.868 19.857h-6.119l5.542-28.631h6.176l-.519 2.598c4.906-2.483 6.869-2.887 8.832-2.887 5.772 0 9.062 4.098 7.85 10.448M192.505 41.133l.462-2.483c-4.791 2.194-6.811 2.772-8.774 2.772-5.83 0-9.12-4.099-7.908-10.448l1.616-8.313c1.212-6.35 6.119-10.448 11.949-10.448 2.021 0 4.04.808 7.793 3.059l.52-2.77h6.002l-5.541 28.631h-6.119Zm3.925-20.203c-2.308-1.559-5.253-2.945-7.042-2.945-2.54 0-4.733 1.501-5.426 5.196l-1.385 7.158c-.75 3.867.981 5.194 3.405 5.137 2.078 0 5.08-1.27 8.14-2.771l2.308-11.775ZM222.236 41.133l.519-2.598c-4.329 2.078-6.811 2.887-8.832 2.887-5.83 0-9.12-4.099-7.908-10.448l1.616-8.313c1.213-6.35 6.119-10.448 11.95-10.448 1.962 0 3.924.578 7.677 2.887L230.029.957001h6.118L228.355 41.133h-6.119Zm3.867-19.914c-2.366-1.559-4.964-3.06-7.042-3.06-2.598-.057-4.618 1.27-5.368 5.137l-1.386 7.158c-.692 3.694.809 5.195 3.349 5.195 1.962 0 5.887-1.558 8.196-2.771l2.251-11.659ZM251.62 41.133l.462-2.483c-4.792 2.194-6.812 2.772-8.775 2.772-5.83 0-9.12-4.099-7.908-10.448l1.616-8.313c1.212-6.35 6.119-10.448 11.949-10.448 2.021 0 4.04.808 7.793 3.059l.519-2.77h6.004l-5.542 28.631h-6.118Zm3.924-20.203c-2.308-1.559-5.252-2.945-7.042-2.945-2.54 0-4.733 1.501-5.425 5.196l-1.386 7.158c-.75 3.867.981 5.194 3.405 5.137 2.078 0 5.08-1.27 8.14-2.771l2.308-11.775Z" clip-rule="evenodd"/></svg>